<?xml version="1.0" encoding="UTF-8"?><svg id="b" xmlns="http://www.w3.org/2000/svg" viewBox="0 0 182.27 182.4"><g id="c"><g><g><path d="M111.4,73.45c-4.28,0-8.46,.92-12.3,2.69v-14.83h-15.21v14.83c-3.84-1.77-8.02-2.69-12.3-2.69h-8.95v15.21h8.95c5.05,0,9.66,3.16,11.47,7.86,.07,.19,.14,.39,.21,.58l.48,1.47h15.47l.49-1.46c.06-.2,.13-.39,.21-.59,1.82-4.7,6.43-7.86,11.47-7.86h8.92v-15.21h-8.92Z" style="fill:#fff;"/><path d="M62.64,117.08h14.44c.86,0,1.7,.16,2.49,.47,2.34,.92,3.98,3.04,4.28,5.54l.22,1.89h14.86l.22-1.89c.29-2.49,1.93-4.61,4.28-5.54,.79-.31,1.63-.47,2.49-.47h14.4v-15.21H62.64v15.21Z" style="fill:#fff;"/></g><g><path d="M18.61,106.93l-16.51,2.96-.8-4.48,16.51-2.96,.8,4.48Z" style="fill:#fff;"/><path d="M9.79,75.71c5.32,.52,8.23,2.06,7.59,8.6l-.67,6.83-16.71-1.64,.67-6.83c.64-6.54,3.8-7.48,9.12-6.96Zm-.45,4.53c-3.91-.38-4.71,1.05-4.85,2.56l-.25,2.53,9.12,.9,.25-2.53c.15-1.5-.35-3.07-4.26-3.46Z" style="fill:#fff;"/><path d="M11.83,57.12l1.77,.8,2.86-6.31,3.49,1.58-2.86,6.31,1.77,.8c.48,.22,.7,.19,.94-.34l3.07-6.77,3.47,1.58-4.1,9.04c-.86,1.9-2.03,2.1-3.8,1.3l-9.93-4.51c-1.79-.81-2.41-1.83-1.55-3.73l4.1-9.04,3.47,1.58-3.07,6.77c-.24,.52-.11,.71,.37,.93Z" style="fill:#fff;"/><path d="M49.66,22.83c1.98,2.68,2.12,5.58-2.17,8.74-3.46,2.55-6.07,3.28-9.03-.49l3.22-2.38c.84,1.14,1.97,.93,3.4-.12,1.64-1.21,2.22-2.2,1.62-3.01-.84-1.14-2.33,.11-4.21,1.28-2.5,1.58-5.12,2.55-7.24-.33-2.42-3.28-1.46-6.07,1.97-8.6s6.36-2.45,8.98,.92l-3.22,2.37c-1.02-1.39-1.88-1.38-3.37-.29-1.35,1-1.86,1.96-1.28,2.76,.83,1.12,2.22,.15,4.07-1.06,3.06-1.95,5.36-2.34,7.24,.21Z" style="fill:#fff;"/><path d="M70.79,13.13l4.12-1.28c.81,3.56,.38,6.81-5.13,8.52l-.32,.1c-6.25,1.94-8.56-1.31-9.97-5.84-1.41-4.53-1.34-8.52,4.91-10.46l.32-.1c5.52-1.71,7.7,.72,9.06,4.11l-4.12,1.28c-1.07-2.15-2.39-2.19-3.6-1.82l-.73,.23c-1.44,.45-2.65,1.65-1.48,5.41,1.17,3.75,2.84,4.06,4.29,3.61l.73-.23c1.21-.38,2.28-1.16,1.94-3.54Z" style="fill:#fff;"/><path d="M102.63,.61l-.69,16.77-4.55-.19,.24-5.87-5.51-.23-.24,5.87-4.55-.19,.69-16.77,4.55,.19-.29,7.09,5.51,.23,.29-7.09,4.55,.19Z" style="fill:#fff;"/><path d="M130.27,17.81c-1.8,4.39-4.4,7.42-10.45,4.94l-.31-.13c-6.06-2.49-5.77-6.47-3.97-10.86s4.4-7.42,10.45-4.94l.31,.13c6.06,2.49,5.77,6.47,3.97,10.86Zm-4.21-1.73c1.49-3.64,.42-4.94-1-5.52l-.71-.29c-1.4-.57-3.1-.42-4.59,3.22s-.4,4.95,1,5.52l.71,.29c1.42,.58,3.1,.42,4.59-3.22Z" style="fill:#fff;"/><path d="M147.17,36.12l-2.48,2.89-6.63-5.68c-1.58-1.36-1.45-2.54-.19-4.02l9.02-10.52,3.46,2.97-7.98,9.3c-.34,.4-.38,.62,.06,1l4.73,4.06Z" style="fill:#fff;"/><path d="M173.29,50.4l-14.35,8.72-2.34-3.85,2.38-1.44-2.71-4.47-2.96,.48-2.68-4.41,13.08-2.03c3.95-.61,5.23-.17,7.24,3.15l2.34,3.85Zm-5.62-1.86c-.67-.77-1.77-.75-4.02-.39l-3.31,.55,1.91,3.13,5.43-3.3Z" style="fill:#fff;"/><path d="M165.95,83.91c-.35-.88-.61-1.64-.74-2.29-.51-2.49,.49-3.68,2.48-5.56l1.07-1-.41-2-4.44,.92-.92-4.46,16.44-3.4,1.89,9.13c.73,3.67-2.46,5.5-5.05,6.04-2.09,.43-4.88,.22-6.26-1.84l-4.05,4.46Zm9.32-7.26c1.62-.33,2.19-1.14,1.96-2.26l-.63-3.03-4.51,.93,.63,3.03c.22,1.06,.93,1.67,2.55,1.33Z" style="fill:#fff;"/><path d="M170.06,108.31c-3.31-.41-5.51-2.3-4.86-7.58,.53-4.26,1.79-6.66,6.57-6.21l-.49,3.97c-1.4-.17-2.03,.79-2.25,2.55-.25,2.02,.07,3.12,1.07,3.25,1.4,.17,1.52-1.77,1.96-3.94,.58-2.9,1.67-5.47,5.21-5.03,4.04,.5,5.41,3.11,4.89,7.34-.52,4.23-2.59,6.3-6.84,5.89l.49-3.97c1.71,.21,2.3-.42,2.52-2.25,.21-1.67-.15-2.7-1.12-2.82-1.38-.17-1.64,1.51-2.03,3.69-.68,3.56-1.99,5.5-5.13,5.11Z" style="fill:#fff;"/></g><g><path d="M25.73,154.35l7.83-8.01,1.72,1.68-6.39,6.53,3.18,3.11-1.44,1.48-4.9-4.79Z" style="fill:#fff;"/><path d="M49.02,158.97l2.05,1.25-5.83,9.56-2.05-1.25,5.83-9.56Z" style="fill:#fff;"/><path d="M63.27,166.32l3.03,.88,.69,8.76,5.18-7.06,2.97,.86-3.12,10.76-2.2-.64,2.09-7.21-4.89,6.4-1.87-.54-.71-8.02-2.09,7.21-2.2-.64,3.12-10.76Z" style="fill:#fff;"/><path d="M88.7,171.16l2.4,.05-.21,11.19-2.4-.05,.21-11.19Z" style="fill:#fff;"/><path d="M104.19,170.31l8.68-1.89,.44,2.02-3.17,.69,1.94,8.93-2.35,.51-1.94-8.93-3.16,.69-.44-2.02Z" style="fill:#fff;"/><path d="M125.06,163.89l6.67-3.47,.95,1.83-4.54,2.36,1.16,2.23,3.69-1.92,.91,1.75-3.69,1.92,1.2,2.3,4.7-2.44,.95,1.83-6.83,3.55-5.17-9.93Z" style="fill:#fff;"/><path d="M150.29,160.97l-7.67-8.16,2.97-2.79c2.54-2.39,5.8-2.31,8.06,.09,2.25,2.39,2.16,5.68-.39,8.07l-2.97,2.79Zm.38-3.1l1.22-1.15c1.56-1.47,1.42-3.37-.04-4.92-1.47-1.56-3.33-1.79-4.89-.32l-1.22,1.15,4.93,5.25Z" style="fill:#fff;"/></g></g></g></svg>