<?xml version="1.0" encoding="UTF-8"?><svg id="b" xmlns="http://www.w3.org/2000/svg" viewBox="0 0 197.64 218.17"><g id="c"><g><path d="M167.07,41.61c-14.65,0-29,3.16-42.14,9.22V0h-52.11V50.83c-13.14-6.06-27.49-9.22-42.14-9.22H0v52.11H30.68c17.29,0,33.09,10.83,39.32,26.93,.25,.65,.49,1.33,.71,2l1.65,5.05h53.01l1.67-5.02c.22-.67,.45-1.34,.72-2.02,6.23-16.12,22.03-26.95,39.32-26.95h30.56V41.61h-30.56Z" style="fill:#00bcb2;"/><path d="M0,191.12H49.46c2.95,0,5.82,.54,8.54,1.61,8.03,3.15,13.65,10.42,14.66,18.97l.76,6.47h50.91l.76-6.47c1.01-8.55,6.62-15.81,14.65-18.97,2.71-1.07,5.58-1.61,8.54-1.61h49.34v-52.11H0v52.11Z"/></g></g></svg>