<?xml version="1.0" encoding="UTF-8"?><svg id="b" xmlns="http://www.w3.org/2000/svg" viewBox="0 0 317.76 42.83"><g id="c"><g><g><path d="M54.26,34.44V8.02h7.17v26.41h-7.17Z" style="fill:#00bcb2;"/><path d="M88.07,21.23c0,8.42-1.96,13.21-12.3,13.21h-10.79V8.02h10.79c10.34,0,12.3,4.79,12.3,13.21Zm-7.17,0c0-6.19-2.38-7.21-4.75-7.21h-4v14.42h4c2.38,0,4.75-.98,4.75-7.21Z" style="fill:#00bcb2;"/><path d="M97.87,15.16v3.06h10.91v6.04h-10.91v3.06c0,.87,.19,1.13,1.09,1.13h11.7v6h-15.62c-3.28,0-4.34-1.55-4.34-4.6V12.67c0-3.09,1.06-4.64,4.34-4.64h15.62v6h-11.7c-.91,0-1.09,.3-1.09,1.13Z" style="fill:#00bcb2;"/><path d="M142.4,25.61c0,5.28-2.53,9.06-10.91,9.06-6.75,0-10.75-1.51-10.98-9.06h6.3c0,2.23,2.11,3.25,4.87,3.25,3.21,0,4.42-.94,4.42-2.53,0-2.19-3.06-2.04-6.53-2.3-4.64-.34-8.87-1.55-8.87-7.17,0-6.41,3.81-9.06,10.53-9.06s10.34,2.83,10.53,9.55h-6.3c0-2.72-1.32-3.96-4.23-3.96-3.06,0-3.96,1.21-3.96,2.75,0,2.19,2.68,2.26,6.15,2.45,5.7,.38,8.98,2.04,8.98,7.02Z" style="fill:#00bcb2;"/><path d="M161.98,24.25h6.83c-.49,5.74-2.64,10.42-11.74,10.42h-.53c-10.3,0-12.26-5.96-12.26-13.43s1.96-13.43,12.26-13.43h.53c9.09,0,11.24,4.68,11.74,10.42h-6.83c-.6-3.74-2.57-4.42-4.57-4.42h-1.21c-2.38,0-4.75,1.25-4.75,7.43s2.38,7.43,4.75,7.43h1.21c2,0,3.96-.68,4.57-4.42Z" style="fill:#00bcb2;"/><path d="M194.39,8.02v26.41h-7.17v-9.25h-8.68v9.25h-7.17V8.02h7.17v11.17h8.68V8.02h7.17Z" style="fill:#00bcb2;"/><path d="M222.15,21.23c0,7.47-1.96,13.43-12.26,13.43h-.53c-10.3,0-12.26-5.96-12.26-13.43s1.96-13.43,12.26-13.43h.53c10.3,0,12.26,5.96,12.26,13.43Zm-7.17,0c0-6.19-2.34-7.43-4.75-7.43h-1.21c-2.38,0-4.75,1.25-4.75,7.43s2.38,7.43,4.75,7.43h1.21c2.42,0,4.75-1.25,4.75-7.43Z" style="fill:#00bcb2;"/><path d="M242.94,28.44v6h-13.74c-3.28,0-4.34-1.55-4.34-4.6V8.02h7.17V27.31c0,.83,.19,1.13,1.09,1.13h9.81Z" style="fill:#00bcb2;"/><path d="M267.69,8.02v26.41h-7.09v-4.38h-8.23l-1.77,4.38h-8.11l7.96-19.25c2.42-5.81,4.04-7.17,10.15-7.17h7.09Zm-7.09,6.04c-1.58,.26-2.45,1.77-3.81,5.09l-1.96,4.91h5.77V14.06Z" style="fill:#00bcb2;"/><path d="M294.36,34.44c-1.47,.26-2.72,.42-3.77,.42-4,0-5.51-1.92-7.77-5.58l-1.21-1.96h-3.21v7.13h-7.17V8.02h14.68c5.89,.04,7.7,5.55,7.7,9.7,0,3.36-1.21,7.58-4.83,9.06l5.58,7.66Zm-8.23-16.68c0-2.6-1.06-3.74-2.87-3.74h-4.87v7.25h4.87c1.7,0,2.87-.91,2.87-3.51Z" style="fill:#00bcb2;"/><path d="M317.76,25.61c0,5.25-2.53,9.06-10.91,9.06-6.75,0-10.75-1.51-10.98-9.06h6.3c0,2.23,1.62,3.02,4.42,3.02,3.21,0,4.87-.72,4.87-2.3,0-2.23-3.06-2.04-6.53-2.3-4.64-.34-8.87-1.55-8.87-7.17,0-6.41,3.81-9.06,10.53-9.06s10.34,2.83,10.53,9.55h-6.3c0-2.72-1.09-3.51-4-3.51-2.64,0-4.19,.75-4.19,2.3,0,2.19,2.68,2.26,6.15,2.45,5.7,.38,8.98,2.04,8.98,7.02Z" style="fill:#00bcb2;"/></g><g><path d="M32.8,8.17c-2.88,0-5.69,.62-8.27,1.81V0H14.29V9.98c-2.58-1.19-5.4-1.81-8.27-1.81H0v10.23H6.02c3.39,0,6.5,2.13,7.72,5.28,.05,.13,.1,.26,.14,.39l.32,.99h10.41l.33-.99c.04-.13,.09-.26,.14-.4,1.22-3.16,4.32-5.29,7.72-5.29h6V8.17h-6Z" style="fill:#00bcb2;"/><path d="M0,37.52H9.71c.58,0,1.14,.11,1.68,.32,1.58,.62,2.68,2.05,2.88,3.72l.15,1.27h9.99l.15-1.27c.2-1.68,1.3-3.1,2.87-3.72,.53-.21,1.1-.32,1.68-.32h9.69v-10.23H0v10.23Z" style="fill:#00bcb2;"/></g></g></g></svg>